<svg xmlns="http://www.w3.org/2000/svg" viewBox="0 6.650000095367432 131.8000030517578 37.75" data-asc="0.883" width="131.8000030517578" height="37.75"><defs/><g><g fill="#000000"><g transform="translate(0, 0)"><path d="M0 44.20Q0.55 41.45 1.13 38.72Q1.70 36 2.20 33.35Q4.10 23.85 5.30 15.15Q4.75 15.05 4.15 15.02Q3.55 15.00 3 15.05Q1.80 15.15 0.65 14.75Q0.70 14.35 0.70 13.87Q0.70 13.40 0.70 12.90Q0.70 12.35 0.70 11.82Q0.70 11.30 0.75 10.80Q0.80 10.25 0.80 9.63Q0.80 9 0.85 8.35Q2.15 8.45 3.45 8.50Q4.75 8.55 6.05 8.55Q9.75 8.55 13.13 8.30Q16.50 8.05 19.35 7.70L18.80 10.40L18.35 12.75Q18.10 14.05 17.90 14.80Q17.35 14.95 16.80 15.05Q16.25 15.15 15.70 15.20Q15.15 15.25 14.57 15.35Q14 15.45 13.45 15.55Q12.70 19.25 12.23 21.95Q11.75 24.65 11.38 27.12Q11 29.60 10.50 32.55Q9.65 37.60 9 42.80L0 44.20ZM22.65 44.35Q19.35 44.35 17.25 41.80Q15.15 39.25 15.15 34.10Q15.15 31.25 15.85 28.10Q16.55 24.95 17.80 21.90Q19.05 18.85 20.70 16.25Q23.35 12.05 26.80 9.40Q30.25 6.75 34.05 6.75Q37.05 6.75 38.68 8.27Q40.30 9.80 40.95 12.17Q41.60 14.55 41.60 17.10Q41.60 23.05 39.78 28.17Q37.95 33.30 35.05 36.85Q32.15 40.50 28.88 42.42Q25.60 44.35 22.65 44.35M25.35 36.10Q27.60 36.10 29.33 34.60Q31.05 33.10 32.25 30.77Q33.45 28.45 34.05 25.90Q34.65 23.35 34.65 21.30Q34.65 20.50 34.50 19.57Q34.35 18.65 33.85 17.95Q33.35 17.25 32.30 17.25Q30.00 17.25 28.15 18.92Q26.30 20.60 25.05 23.15Q23.80 25.75 23.20 28.25Q22.60 30.75 22.60 32.80Q22.60 33.85 23.35 34.97Q24.10 36.10 25.35 36.10ZM47.30 44.35Q44 44.35 41.90 41.80Q39.80 39.25 39.80 34.10Q39.80 31.25 40.50 28.10Q41.20 24.95 42.45 21.90Q43.70 18.85 45.35 16.25Q48 12.05 51.45 9.40Q54.90 6.75 58.70 6.75Q61.70 6.75 63.33 8.27Q64.95 9.80 65.60 12.17Q66.25 14.55 66.25 17.10Q66.25 23.05 64.42 28.17Q62.60 33.30 59.70 36.85Q56.80 40.50 53.52 42.42Q50.25 44.35 47.30 44.35M50 36.10Q52.25 36.10 53.98 34.60Q55.70 33.10 56.90 30.77Q58.10 28.45 58.70 25.90Q59.30 23.35 59.30 21.30Q59.30 20.50 59.15 19.57Q59 18.65 58.50 17.95Q58 17.25 56.95 17.25Q54.65 17.25 52.80 18.92Q50.95 20.60 49.70 23.15Q48.45 25.75 47.85 28.25Q47.25 30.75 47.25 32.80Q47.25 33.85 48 34.97Q48.75 36.10 50 36.10ZM63.15 44.40Q64.65 37.20 66 30.45Q67.10 24.10 68.15 18.25Q69.20 12.40 69.65 7.50Q70 7.55 70.28 7.55Q70.55 7.55 70.75 7.55L71.80 7.55Q73.10 7.55 74.70 7.47Q76.30 7.40 77.65 7.35Q78 9.10 78.33 10.80Q78.65 12.50 78.90 14.10Q79.15 15.50 79.45 16.97Q79.75 18.45 80.05 19.95Q80.30 21.45 80.58 22.72Q80.85 24.00 81.05 25.05Q81.65 22.10 82.18 19.25Q82.70 16.40 83.20 14.10L84.65 7.40L90.75 6.65Q89.90 10.45 89.15 14.10Q88.40 17.75 87.75 21.15Q86.50 27.25 85.55 32.65Q84.60 38.05 84.10 42.05Q84.65 42.05 83.93 42.17Q83.20 42.30 81.80 42.52Q80.40 42.75 78.80 43.10Q77.20 43.45 75.95 43.95Q75.80 41.95 75.65 40.05Q75.50 38.15 75.30 36.35Q75 33.15 74.60 30Q74.20 26.85 73.80 25.00Q73.45 27.20 72.95 30.02Q72.45 32.85 71.85 35.70L70.45 42.70L63.15 44.40ZM85.85 44.20Q86.60 40.70 87.30 37.30Q88 33.90 88.65 30.60Q89.70 24.65 90.70 18.82Q91.70 13.00 92.15 7.70L94.75 7.85Q95.45 7.90 96.13 7.95Q96.80 8 97.45 8.05Q98.20 8.10 98.95 8.13Q99.70 8.15 100.45 8.15Q100.35 8.55 100.13 9.75Q99.90 10.95 99.67 12.17Q99.45 13.40 99.35 13.85L98.45 18.80L98.75 18.75Q100.20 16.50 102.10 13.55Q104 10.60 105.65 7.90Q108.15 7.70 110.65 7.45Q113.15 7.20 115.65 6.80Q114.50 8.35 113.35 9.90Q112.20 11.45 111.10 13.00Q109.95 14.60 108.60 16.50Q107.25 18.40 106.03 20.22Q104.80 22.05 104 23.35Q104.55 25.85 105.20 28.30Q105.85 30.75 106.60 33.10Q107.35 35.45 108.10 37.85Q108.85 40.25 109.65 42.70Q108.50 42.65 107.30 42.63Q106.10 42.60 104.95 42.60Q103.50 42.60 102.15 42.63Q100.80 42.65 99.35 42.70Q99.15 41.10 98.90 39.38Q98.65 37.65 98.40 35.85Q98.15 34.10 97.90 32.38Q97.65 30.65 97.40 29.05L96.50 30.10Q96.15 31.55 95.75 33.80Q95.55 34.90 95.33 35.97Q95.10 37.05 94.90 38.05Q94.70 39.25 94.45 40.48Q94.20 41.70 93.95 43L85.85 44.20ZM121.55 44.05Q121.65 43.20 121.75 42.40Q121.85 41.60 121.95 40.80L122.25 38Q122.30 37.30 122.35 36.70Q122.40 36.10 122.45 35.60L118.10 35.60L116.10 42.80Q115 42.95 113.50 43.13Q112 43.30 110.70 43.45Q109.90 43.55 109.13 43.65Q108.35 43.75 107.55 43.85L111.50 30.75Q112.20 28.40 113.10 25.40Q114 22.40 114.92 19.25Q115.85 16.10 116.67 13.32Q117.50 10.55 118 8.65Q121.40 8.40 124.92 8.05Q128.45 7.70 131.80 7.10Q131.55 9.90 131.32 13.42Q131.10 16.95 130.93 20.70Q130.75 24.45 130.55 28.10Q130.45 31.55 130.30 35.22Q130.15 38.90 130 42.75Q129.25 42.85 128.50 42.95Q127.75 43.05 127 43.15Q125.75 43.35 124.25 43.60Q122.75 43.85 121.55 44.05M119.30 30.60Q119.60 30.60 120.42 30.55Q121.25 30.50 122 30.45Q122.75 30.40 122.90 30.40Q122.90 29.75 123.10 27.75Q123.30 25.75 123.50 23.55Q123.60 22.25 123.72 20.87Q123.85 19.50 124 18.05L124.30 13.70L123.55 13.75L122.40 18.05L119.30 30.60Z"/></g></g></g></svg>